<svg xmlns="http://www.w3.org/2000/svg" width="1200" height="700" viewBox="0 0 1200 700">
  <rect width="1200" height="700" fill="#f8fafc"/>
  <rect x="90" y="70" width="1020" height="560" rx="26" fill="#ffffff" stroke="#e2e8f0"/>

  <rect x="130" y="120" width="420" height="14" rx="7" fill="#0f172a" opacity="0.85"/>
  <rect x="130" y="160" width="520" height="10" rx="5" fill="#94a3b8"/>

  <rect x="130" y="220" width="950" height="360" rx="18" fill="#ffffff" stroke="#e2e8f0"/>

  <rect x="160" y="260" width="240" height="12" rx="6" fill="#0f172a" opacity="0.8"/>
  <rect x="160" y="286" width="340" height="10" rx="5" fill="#cbd5e1"/>

  <rect x="160" y="330" width="900" height="18" rx="9" fill="#eef2ff" stroke="#c7d2fe"/>
  <rect x="180" y="336" width="220" height="6" rx="3" fill="#4338ca" opacity="0.85"/>

  <rect x="160" y="380" width="430" height="160" rx="18" fill="#0f172a"/>
  <rect x="190" y="420" width="240" height="12" rx="6" fill="#a5b4fc" opacity="0.9"/>
  <rect x="190" y="450" width="360" height="10" rx="5" fill="#e2e8f0" opacity="0.55"/>
  <rect x="190" y="480" width="340" height="10" rx="5" fill="#e2e8f0" opacity="0.4"/>

  <rect x="620" y="380" width="440" height="160" rx="18" fill="#ffffff" stroke="#e2e8f0"/>
  <rect x="650" y="420" width="240" height="12" rx="6" fill="#0f172a" opacity="0.8"/>
  <rect x="650" y="450" width="360" height="10" rx="5" fill="#94a3b8"/>
  <rect x="650" y="480" width="320" height="10" rx="5" fill="#cbd5e1"/>

  <text x="90" y="660" font-family="Inter, system-ui, -apple-system, Segoe UI, Roboto" font-size="18" fill="#64748b">Placeholder: sustituye este SVG por una captura real cuando la tengas.</text>
</svg>
