<svg xmlns="http://www.w3.org/2000/svg" width="1200" height="700" viewBox="0 0 1200 700">
  <rect width="1200" height="700" fill="#f8fafc"/>
  <rect x="90" y="70" width="1020" height="560" rx="26" fill="#ffffff" stroke="#e2e8f0"/>
  <rect x="130" y="120" width="240" height="14" rx="7" fill="#0f172a" opacity="0.85"/>
  <rect x="130" y="160" width="520" height="10" rx="5" fill="#94a3b8"/>
  <rect x="130" y="200" width="460" height="10" rx="5" fill="#cbd5e1"/>

  <rect x="130" y="260" width="420" height="280" rx="18" fill="#0f172a"/>
  <rect x="160" y="300" width="210" height="12" rx="6" fill="#a5b4fc" opacity="0.9"/>
  <rect x="160" y="330" width="340" height="10" rx="5" fill="#e2e8f0" opacity="0.75"/>
  <rect x="160" y="360" width="310" height="10" rx="5" fill="#e2e8f0" opacity="0.55"/>
  <rect x="160" y="410" width="260" height="10" rx="5" fill="#e2e8f0" opacity="0.55"/>
  <rect x="160" y="440" width="320" height="10" rx="5" fill="#e2e8f0" opacity="0.55"/>

  <rect x="590" y="260" width="490" height="80" rx="18" fill="#eef2ff" stroke="#c7d2fe"/>
  <rect x="620" y="292" width="250" height="12" rx="6" fill="#4338ca" opacity="0.9"/>
  <rect x="620" y="314" width="400" height="10" rx="5" fill="#64748b" opacity="0.6"/>

  <rect x="590" y="360" width="490" height="80" rx="18" fill="#ffffff" stroke="#e2e8f0"/>
  <rect x="620" y="392" width="230" height="12" rx="6" fill="#0f172a" opacity="0.85"/>
  <rect x="620" y="414" width="380" height="10" rx="5" fill="#94a3b8"/>

  <rect x="590" y="460" width="490" height="80" rx="18" fill="#ffffff" stroke="#e2e8f0"/>
  <rect x="620" y="492" width="210" height="12" rx="6" fill="#0f172a" opacity="0.85"/>
  <rect x="620" y="514" width="360" height="10" rx="5" fill="#94a3b8"/>

  <text x="90" y="660" font-family="Inter, system-ui, -apple-system, Segoe UI, Roboto" font-size="18" fill="#64748b">Placeholder: sustituye este SVG por una captura real cuando la tengas.</text>
</svg>
